<?xml version="1.0" standalone="no"?>
<!DOCTYPE svg PUBLIC "-//W3C//DTD SVG 1.1//EN" "http://www.w3.org/Graphics/SVG/1.1/DTD/svg11.dtd">
<svg xmlns="http://www.w3.org/2000/svg">
<metadata>Generated by Fontastic.me</metadata>
<defs>
<font id="boatday-icons" horiz-adv-x="512">
<font-face font-family="boatday-icons" units-per-em="512" ascent="480" descent="-32"/>
<missing-glyph horiz-adv-x="512" />

<glyph glyph-name="camera-plus" unicode="&#97;" d="M148 343l-34-38-6-6-70 0c-10 0-19-9-19-20l0-231c0-11 9-20 19-20l307 0c11 0 19 9 19 20l0 231c0 11-8 20-19 20l-70 0-5 6-35 38 14-6-115 0z m-14 13l115 0 35-38 61 0c21 0 38-18 38-39l0-231c0-21-17-39-38-39l-307 0c-21 0-38 18-38 39l0 231c0 21 17 39 38 39l62 0z m60-237c30 0 53 23 53 52 0 30-23 52-53 52-29 0-52-22-52-52 0-29 23-52 52-52z m0-19c-39 0-71 31-71 71 0 40 32 71 71 71 40 0 71-31 71-71 0-40-31-71-71-71z m302 324l-136 2-10 0 0-19 9 0 137-2 9 0 1 19z m-58-79l-1 143-1 9-19 0 1-10 1-143 0-9 19 0z"/>
<glyph glyph-name="pin" unicode="&#98;" d="M267 11l0 211-22 0 0-222 22 0z m-11 200c83 0 150 68 150 151 0 83-67 150-150 150-83 0-150-67-150-150 0-83 67-151 150-151z m0 23c-71 0-128 57-128 128 0 70 57 128 128 128 71 0 128-58 128-128 0-71-57-128-128-128z"/>
<glyph glyph-name="exclamation" unicode="&#99;" d="M251 211c6 0 11 5 11 12l0 159c0 6-5 11-11 11-7 0-12-5-12-11l0-159c0-7 5-12 12-12m0-48l0 0c-13-1-23-11-23-24 1-12 11-22 23-22l1 0c12 0 22 11 22 23 0 13-10 23-23 23m0-137c126 0 228 102 228 228 0 125-102 227-228 227-126 0-227-102-227-227 0-126 101-228 227-228z m0-23c-138 0-250 112-250 251 0 138 112 250 250 250 138 0 250-112 250-250 0-139-112-251-250-251z"/>
<glyph glyph-name="speech-bubble" unicode="&#100;" d="M155 332l212 0 0 19-222 0 0-19z m0-57l120 0 0 19-130 0 0-19z m-74-91l137 0c4 0 8-1 11-3l127-84c-4 3-13-3-13-7l0 75c0 11 8 19 19 19l67 0c10 0 19 9 19 20l0 224c0 11-9 19-20 19l-347 0c-11 0-20-8-20-19l0-224c0-11 9-20 20-20z m0-19c-22 0-39 17-39 39l0 224c0 21 17 39 39 39l347 0c22 0 39-18 39-39l0-224c0-22-17-39-38-39l-67 0 0-75c0-11-7-15-16-9l-128 84z"/>
<glyph glyph-name="calendar" unicode="&#101;" d="M23 489l0-466c0 0 0 0 0 0l466 0c0 0 0 0 0 0l0 466c0 0 0 0 0 0l-466 0c0 0 0 0 0 0z m-23 0c0 13 10 23 23 23l466 0c13 0 23-10 23-23l0-466c0-13-10-23-23-23l-466 0c-13 0-23 10-23 23z m110-108l300 0 0 23-311 0 0-23z m2-119c0-10 8-18 18-18 9 0 17 8 17 18 0 9-8 17-17 17-10 0-18-8-18-17z m-23 0c0 22 18 41 41 41 22 0 40-19 40-41 0-23-18-41-40-41-23 0-41 18-41 41z m151 0c0-10 8-18 18-18 9 0 17 8 17 18 0 9-8 17-17 17-10 0-18-8-18-17z m-23 0c0 22 18 41 41 41 22 0 40-19 40-41 0-23-18-41-40-41-23 0-41 18-41 41z m151 0c0-10 8-18 18-18 9 0 17 8 17 18 0 9-8 17-17 17-10 0-18-8-18-17z m-23 0c0 22 18 41 41 41 22 0 40-19 40-41 0-23-18-41-40-41-23 0-41 18-41 41z m-233-127c0-10 8-18 18-18 9 0 17 8 17 18 0 9-8 17-17 17-10 0-18-8-18-17z m-23 0c0 22 18 41 41 41 22 0 40-19 40-41 0-23-18-41-40-41-23 0-41 18-41 41z m151 0c0-10 8-18 18-18 9 0 17 8 17 18 0 9-8 17-17 17-10 0-18-8-18-17z m-23 0c0 22 18 41 41 41 22 0 40-19 40-41 0-23-18-41-40-41-23 0-41 18-41 41z m155 0c0-10 8-18 18-18 9 0 17 8 17 18 0 9-8 17-17 17-10 0-18-8-18-17z m-23 0c0 22 18 41 41 41 22 0 41-19 41-41 0-23-19-41-41-41-23 0-41 18-41 41z"/>
<glyph glyph-name="cross" unicode="&#102;" d="M28 23l469 459c5 5 5 14 0 19-5 5-14 5-19 0l-469-459c-5-5-5-13 0-19 5-5 14-5 19 0z m-19 459l469-459c5-5 14-5 19 0 5 6 5 14 0 19l-469 459c-5 5-14 5-19 0-5-5-5-14 0-19z"/>
<glyph glyph-name="trash" unicode="&#103;" d="M431 425l0-408 11 12-372 0 11-12 0 408c0 6-5 11-11 11-7 0-12-5-12-11l0-419 396 0 0 419c0 6-5 11-12 11-6 0-11-5-11-11z m-419 0l488 0c7 0 12 5 12 11 0 7-5 12-12 12l-488 0c-7 0-12-5-12-12 0-6 5-11 12-11z m174 23l0 47-11-12 162 0-11 12 0-47c0-6 5-12 11-12 7 0 12 6 12 12l0 58-186 0 0-58c0-6 5-12 12-12 6 0 11 6 11 12z m-35-122l0-198c0-6 5-12 12-12 6 0 12 6 12 12l0 198c0 6-6 11-12 11-7 0-12-5-12-11z m93 0l0-198c0-6 6-12 12-12 6 0 12 6 12 12l0 198c0 6-6 11-12 11-6 0-12-5-12-11z m93 0l0-198c0-6 6-12 12-12 7 0 12 6 12 12l0 198c0 6-5 11-12 11-6 0-12-5-12-11z"/>
<glyph glyph-name="pen" unicode="&#104;" d="M311 395l88-88 17 17-88 88z m-196-392l382 382 8 9-8 8-95 95-9 8-8-8-382-382-3-4 0-111 112 0z m-16 17l8 4-95 0 12-12 0 94-4-8 382 382-17 0 95-95 0 17z m110-20l273 0 0 24-273 0z"/>
<glyph glyph-name="mail" unicode="&#105;" d="M26 422l0-332c0-15 11-26 25-26l410 0c14 0 25 11 25 26l0 332c0 15-11 26-25 26l-410 0c-14 0-25-11-25-26z m-26 0c0 29 23 52 51 52l410 0c28 0 51-23 51-52l0-332c0-29-23-52-51-52l-410 0c-28 0-51 23-51 52z m474 48l-222-225 18 0-222 225-19-18 223-225 9-9 9 9 222 225z"/>
<glyph glyph-name="question" unicode="&#106;" d="M251 26c126 0 228 102 228 228 0 125-102 227-228 227-126 0-227-102-227-227 0-126 101-228 227-228z m0-23c-138 0-250 112-250 251 0 138 112 250 250 250 138 0 250-112 250-250 0-139-112-251-250-251z m-3 208l19 8c-5 4-8 11-8 16 0 31 61 35 61 83 0 28-23 50-62 50-31 0-54-13-69-33l16-17c11 16 26 26 51 26 24 0 37-14 37-30 0-33-58-37-58-77 0-10 4-19 13-26z m6-62c10 0 18 8 18 17 0 10-8 18-18 18-9 0-17-8-17-18 0-9 8-17 17-17z"/>
<glyph glyph-name="plus" unicode="&#107;" d="M244 500l0-500 24 0 0 512-24 0z m-232-256l500 0 0 24-512 0 0-24z"/>
<glyph glyph-name="pen-plus" unicode="&#108;" d="M93 489l0-198 23 0 0 209-23 0z m108-82l-198 0 0-23 209 0 0 23z m-103-390l82 0 4 4 311 315 8 8-8 9-78 78-8 8-8-8-311-316-4-3 0-95z m0 23l12-11 0 78-4-8 311 315-16 0 77-78 0 17-311-316 9 3z"/>
<glyph glyph-name="map" unicode="&#109;" d="M20 395l0-339 103 61 0 339z m-10 18l102 60c14 8 31-1 31-17l0-339c0-7-3-14-10-18l-102-60c-14-8-31 1-31 17l0 339c0 7 4 14 10 18z m256-18l0-339 103 61 0 339z m-10 18l102 60c14 8 31-1 31-17l0-339c0-7-4-14-10-18l-102-60c-14-8-31 1-31 17l0 339c0 7 4 14 10 18z m-10-18l-103 61 0-339 103-61z m10 18c6-4 10-11 10-18l0-339c0-16-17-25-31-17l-102 60c-6 4-10 11-10 18l0 339c0 16 17 25 31 17z m236-18l-103 61 0-339 103-61z m10 18c6-4 10-11 10-18l0-339c0-16-17-25-31-17l-102 60c-7 4-10 11-10 18l0 339c0 16 17 25 31 17z"/>
<glyph glyph-name="1" unicode="&#110;" d="M256 23c129 0 233 104 233 233 0 129-104 233-233 233-129 0-233-104-233-233 0-129 104-233 233-233z m0-23c-141 0-256 115-256 256 0 141 115 256 256 256 141 0 256-115 256-256 0-141-115-256-256-256z m0 245c31 0 58 26 58 58 0 32-27 58-58 58-32 0-58-26-58-58 0-32 26-58 58-58z m0-24c-45 0-81 37-81 82 0 44 36 81 81 81 44 0 81-37 81-81 0-45-37-82-81-82z m-175-139l12 0c0 34 88 69 163 69 75 0 163-35 163-69l23 0c0 62-123 93-186 93-63 0-186-31-186-93z m0 0l-11 0c0 62 123 93 186 93 63 0 186-31 186-93l-23 0c0 34-88 69-163 69-75 0-163-35-163-69z"/>
<glyph glyph-name="more" unicode="&#111;" d="M447 217c21 0 39 17 39 39 0 22-18 39-39 39-22 0-39-17-39-39 0-22 17-39 39-39z m0-22c-34 0-62 27-62 61 0 34 28 61 62 61 33 0 61-27 61-61 0-34-28-61-61-61z m-191 22c22 0 39 17 39 39 0 22-17 39-39 39-21 0-39-17-39-39 0-22 18-39 39-39z m0-22c-33 0-61 27-61 61 0 34 28 61 61 61 34 0 62-27 62-61 0-34-28-61-62-61z m-188 22c22 0 39 17 39 39 0 22-17 39-39 39-21 0-39-17-39-39 0-22 18-39 39-39z m0-22c-34 0-61 27-61 61 0 34 27 61 61 61 34 0 61-27 61-61 0-34-27-61-61-61z"/>
<glyph glyph-name="menu" unicode="&#112;" d="M12 439l500 0 0 24-512 0 0-24z m0-195l378 0 0 24-390 0 0-24z m0-195l500 0 0 24-512 0 0-24z"/>
<glyph glyph-name="sign-out" unicode="&#113;" d="M344 369l135-125 0 18-135-125 17-18 135 125c5 5 5 13 0 18l-135 125z m144-104l-296 0 0-25 296 0z m-155-241l-309 0 13-12 0 488-13-12 309 0 0 24-321 0 0-512 321 0z"/>
<glyph glyph-name="marker" unicode="&#114;" d="M83 315c0-14 2-29 7-45 12-47 43-98 87-151 21-26 43-50 66-72 8-8 15-15 22-20 3-4 6-6 8-7l-34 0c2 1 5 3 8 7 7 5 14 12 22 20 23 22 45 46 66 72 44 53 75 104 87 151 5 16 7 31 7 45 0 96-77 171-173 171-96 0-173-75-173-171z m-25 0c0 110 87 197 198 197 111 0 198-87 198-197 0-147-198-315-198-315 0 0-198 168-198 315z m153 0c0-25 19-45 45-45 26 0 45 20 45 45 0 25-19 45-45 45-26 0-45-20-45-45z m-26 0c0 39 31 70 71 70 40 0 71-31 71-70 0-40-31-71-71-71-40 0-71 31-71 71z"/>
<glyph glyph-name="list" unicode="&#116;" d="M25 431c0-7 6-13 12-13 7 0 13 6 13 13 0 7-6 12-13 12-6 0-12-5-12-12z m-25 0c0 21 17 37 37 37 21 0 38-17 38-37 0-21-17-38-38-38-20 0-37 17-37 38z m25-176c0-7 6-12 12-12 7 0 13 5 13 12 0 7-6 13-13 13-6 0-12-6-12-13z m-25 0c0 21 17 38 37 38 21 0 38-17 38-38 0-20-17-37-38-37-20 0-37 17-37 37z m25-163c0-7 6-13 12-13 7 0 13 6 13 13 0 7-6 12-13 12-6 0-12-5-12-12z m-25 0c0 20 17 37 37 37 21 0 38-17 38-37 0-21-17-38-38-38-20 0-37 17-37 38z m191 323l311 0 0 25-323 0 0-25z m0-176l311 0 0 25-323 0 0-25z m0-165l311 0 0 25-323 0 0-25z"/>
<glyph glyph-name="chevron-left" unicode="&#117;" d="M389 40l-233 232 0-32 233 232c9 9 9 24 0 33-9 9-24 9-33 0l-233-233c-9-9-9-23 0-32l233-233c9-9 24-9 33 0 9 9 9 24 0 33z"/>
<glyph glyph-name="calendar-day" unicode="&#118;" d="M174 296c30 0 53 24 53 54 0 29-23 53-53 53-29 0-53-24-53-53 0-30 24-54 53-54z m0 37c-9 0-17 7-17 17 0 9 8 16 17 16 9 0 17-7 17-16 0-10-8-17-17-17z m-164 132l37 37 0-492-37 37 492 0-37-37 0 492 37-37z m0 37l492 0 0-492-492 0z"/>
<glyph glyph-name="check" unicode="&#119;" d="M445 422l-284-284 40 0c-20 20-20 20-80 79-29 30-29 30-54 55-11 11-29 11-41 0-11-11-11-29 0-40 25-25 25-25 55-55 60-60 60-60 80-79 11-12 29-12 40 0l285 284c11 11 11 29 0 40-12 11-30 11-41 0z"/>
<glyph glyph-name="picture" unicode="&#122;" d="M149 197l4 4 24 0 3-4-76-99-19 0-5 9 12 15 329 0 11-15-5-9-18 0-103 138 4 5 22 0 4-5-87-114-18-24-20 24z m65-41l-3-4 7 0 12-15 12 16 7 0-4 4 76 99 118-158-366 0 92 118z m-43 149c27 0 48 22 48 49 0 26-21 48-48 48-27 0-49-22-49-48 0-27 22-49 49-49z m0 24c-14 0-25 11-25 25 0 13 11 24 25 24 13 0 24-11 24-24 0-14-11-25-24-25z m-171 159l24 24 0-512-24 24 512 0-24-24 0 512 24-24z m0 24l512 0 0-512-512 0z"/>
<glyph glyph-name="home" unicode="&#65;" d="M430 348l0-266c0-17-14-31-31-31l-286 0c-17 0-31 14-31 31l0 266-21 0 0-266c0-28 23-51 52-51l286 0c29 0 52 23 52 51l0 266z m-225-225l102 0c6 0 10 4 10 10 0 6-4 10-10 10l-102 0c-6 0-10-4-10-10 0-6 4-10 10-10z m-189 166l246 174-12 0 246-174c4-4 11-3 14 2 3 5 2 11-2 14l-246 174c-4 3-8 3-12 0l-246-174c-4-3-5-9-2-14 3-5 10-6 14-2z"/>
<glyph glyph-name="address" unicode="&#66;" d="M31 91l455 0c0 0 0 0 0 0l0 330c0 0 0 0 0 0l-455 0c0 0 0 0 0 0l0-330c0 0 0 0 0 0z m0-23c-12 0-22 11-22 23l0 330c0 13 10 23 22 23l455 0c13 0 23-11 23-23l0-330c0-13-10-23-23-23z m74 199l77 0c6 0 11 5 11 12 0 6-5 11-11 11l-77 0c-6 0-11-5-11-11 0-7 5-12 11-12z m0-57l134 0c6 0 11 6 11 12 0 6-5 11-11 11l-134 0c-6 0-11-5-11-11 0-6 5-12 11-12z m0-56l134 0c6 0 11 5 11 11 0 6-5 11-11 11l-134 0c-6 0-11-5-11-11 0-6 5-11 11-11z m-77 350l9 0 0-11-9 0z"/>
<glyph glyph-name="2" unicode="&#67;" d="M105 125l290 0c15 0 27 12 27 27l0 194c0 15-12 27-27 27l-290 0c-15 0-27-12-27-27l0-194c0-15 12-27 27-27z m0-21c-26 0-48 21-48 48l0 194c0 26 22 48 48 48l290 0c26 0 48-22 48-48l0-194c0-27-22-48-48-48z m-52-17l-21 21 427 0-20-21 0 68 20-20-427 0 21 20z m-21 0l0 68 427 0 0-68z m397 297l-357 0c-15 0-27-12-27-27l0-187c0-15 12-27 27-27l357 0c15 0 27 12 27 27l0 187c0 15-12 27-27 27z m0 20c27 0 48-21 48-47l0-187c0-26-21-47-48-47l-357 0c-26 0-47 21-47 47l0 187c0 26 21 47 47 47z m57 17l20-21-501 0 21 21 0-249-21 21 501 0-20-21z m20 0l0-249-501 0 0 249z"/>
<glyph glyph-name="navigate" unicode="&#68;" d="M496 477l-486-216 16 23 0-28-26 26 282 0 0-282-26 26 28 0-23-16 216 486 26 12 5-5z m-496-221l0 28 512 228-228-512-28 0 0 256z"/>
<glyph glyph-name="arrow-right" unicode="&#69;" d="M248 42l244 228 0-17-244 227c-5 5-5 12 0 17 4 4 11 5 16 0l244-227c5-5 5-13 0-17l-244-228c-5-4-12-4-16 1-5 4-5 12 0 16z m252 209l-488 0c-7 0-12 5-12 12 0 6 5 11 12 11l488 0c7 0 12-5 12-11 0-7-5-12-12-12z"/>
<glyph glyph-name="bell" unicode="&#70;" d="M328 7l-13 0c0-29-23-53-52-53-29 0-53 24-53 53l-26 0c0-44 35-79 79-79 43 0 78 35 78 79z m0 0l13 0c0-44-35-79-78-79-44 0-79 35-79 79l26 0c0-29 24-53 53-53 29 0 52 24 52 53z m-315-7l486 0c7 0 13 6 13 13 0 7-6 13-13 13l-486 0c-7 0-13-6-13-13 0-7 6-13 13-13z m66 26l0 210c0 102 82 184 184 184 101 0 183-82 183-184l0-210 27 0 0 210c0 116-94 210-210 210-116 0-210-94-210-210l0-210z m197 433l0 40c0 7-6 13-13 13-8 0-14-6-14-13l0-40c0-7 6-13 14-13 7 0 13 6 13 13z"/>
<glyph glyph-name="chevron-bottom" unicode="&#71;" d="M491 392l-244-256 18 0-244 256c-5 5-12 5-17 1-5-5-5-13-1-17l244-256c5-5 13-5 18 0l244 256c4 4 4 12-1 17-5 4-12 4-17-1z"/>
<glyph glyph-name="clock" unicode="&#72;" d="M34 256c0-123 99-222 222-222 123 0 222 99 222 222 0 123-99 222-222 222-123 0-222-99-222-222z m-34 0c0 141 115 256 256 256 141 0 256-115 256-256 0-141-115-256-256-256-141 0-256 115-256 256z m375-17l-136 0 17-17 0 171-34 0 0-188 153 0z"/>
<glyph glyph-name="lock" unicode="&#73;" d="M56 312l0-267c0-13 10-23 22-23l356 0c12 0 22 10 22 23l0 267c0 12-10 22-22 22l-356 0c-12 0-22-10-22-22z m-23 0c0 24 20 44 45 44l356 0c25 0 45-20 45-44l0-267c0-25-20-45-45-45l-356 0c-25 0-45 20-45 45z m223-179c18 0 33 15 33 33 0 19-15 34-33 34-18 0-33-15-33-34 0-18 15-33 33-33z m0-22c-31 0-56 25-56 55 0 31 25 56 56 56 31 0 56-25 56-56 0-30-25-55-56-55z m-100 245l0 36c0 54 45 98 100 98 55 0 100-44 100-98l0-36 22 0 0 36c0 66-55 120-122 120-67 0-122-54-122-120l0-36z"/>
<glyph glyph-name="person-plus" unicode="&#74;" d="M21 100c0 43 94 97 192 97 98 0 192-54 192-97 0-10-13-20-32-20l-320 0c-16 0-32 13-32 20z m-21 0c0-20 27-41 53-41l320 0c29 0 54 17 54 41 0 57-105 119-214 119-108 0-213-62-213-119z m213 176c41 0 75 33 75 73 0 40-34 73-75 73-41 0-74-33-74-73 0-40 33-73 74-73z m0-22c-52 0-96 43-96 95 0 52 44 95 96 95 53 0 96-43 96-95 0-52-43-95-96-95z m160 29l139 0 0 21-149 0 0-21z m54 74l0-137 21 0 0 148-21 0z"/>
<glyph glyph-name="person" unicode="&#75;" d="M42 85c0 46 107 107 218 107 110 0 217-61 217-107 0-7-23-18-53-18l-329 0c-13 0-27 5-40 14-5 3-9 6-12 9-1 2-2 3-3 3 0 0 0 0 1-1 1-1 1-3 1-7z m-35 0c0-21 49-53 88-53l329 0c47 0 88 20 88 53 0 70-125 143-252 143-128 0-253-73-253-143z m253 214c41 0 75 34 75 74 0 41-34 75-75 75-42 0-76-34-76-75 0-40 34-74 76-74z m0-35c-62 0-112 49-112 109 0 61 50 110 112 110 61 0 111-49 111-110 0-60-50-109-111-109z"/>
<glyph glyph-name="smartphone" unicode="&#76;" d="M89 467l0-422c0-13 10-23 22-23l290 0c12 0 22 10 22 23l0 422c0 13-10 23-22 23l-290 0c-12 0-22-10-22-23z m-22 0c0 25 20 45 44 45l290 0c24 0 44-20 44-45l0-422c0-25-20-45-44-45l-290 0c-24 0-44 20-44 45z m133-66l123 0 0 22-134 0 0-22z m56-301c12 0 22 10 22 22 0 13-10 23-22 23-12 0-22-10-22-23 0-12 10-22 22-22z m0-22c-25 0-45 20-45 44 0 25 20 45 45 45 25 0 45-20 45-45 0-24-20-44-45-44z"/>
<glyph glyph-name="heart" unicode="&#77;" d="M262 395l22 22c45 45 119 45 165 0 45-46 45-120 0-165l-203-203c-4-4-4-11 0-15 4-4 11-4 15 0l203 203c53 54 53 141 0 194-54 54-141 54-195 0l-21-21c-5-4-5-11 0-15 4-4 10-4 14 0z m-2 14l-22 22c-54 54-141 54-194 0-54-53-54-140 0-194l202-203c4-4 11-4 15 0 4 4 4 11 0 15l-203 203c-45 45-45 119 0 165 46 45 120 45 165 0l22-23c4-4 11-4 15 0 4 5 4 11 0 15z"/>
<glyph glyph-name="chevron-right" unicode="&#78;" d="M123 472l233-232 0 32-233-232c-9-9-9-24 0-33 9-9 24-9 33 0l233 233c9 9 9 23 0 32l-233 233c-9 9-24 9-33 0-9-9-9-24 0-33z"/>
<glyph glyph-name="spyglass" unicode="&#79;" d="M223 84c-110 0-200 90-200 200 0 110 90 200 200 200 110 0 199-90 199-200 0-110-89-200-199-200z m0-22c123 0 222 99 222 222 0 123-99 222-222 222-123 0-222-99-222-222 0-123 99-222 222-222z m262-47l-109 100c-4 4-5 11 0 16 4 5 11 5 16 1l109-100c4-4 5-11 1-16-5-4-12-5-17-1z"/>
<glyph glyph-name="sliders" unicode="&#80;" d="M11 134l278 0 0 22-289 0 0-22z m423 0l78 0 0 22-89 0 0-22z m-78-34c25 0 45 20 45 45 0 24-20 44-45 44-24 0-44-20-44-44 0-25 20-45 44-45z m0-22c-37 0-67 30-67 67 0 37 30 66 67 66 37 0 67-29 67-66 0-37-30-67-67-67z m-345 278l100 0 0 22-111 0 0-22z m223 0l278 0 0 22-289 0 0-22z m-78-33c24 0 44 20 44 44 0 25-20 45-44 45-25 0-45-20-45-45 0-24 20-44 45-44z m0-22c-37 0-67 29-67 66 0 37 30 67 67 67 37 0 67-30 67-67 0-37-30-66-67-66z"/>
<glyph glyph-name="twitter" unicode="&#81;" d="M468 365c-4-187-120-318-296-326-72-4-124 20-172 49 52-8 120 12 156 45-52 4-84 32-100 77 16-4 32 0 44 0-48 17-80 45-84 111 12-9 28-13 44-13-36 21-60 98-32 147 52-57 116-106 220-114-28 114 124 175 184 98 28 4 48 16 68 24-8-28-24-44-44-61 20 4 40 8 56 17-4-21-24-37-44-54z"/>
<glyph glyph-name="clock-thin" unicode="&#82;" d="M23 256c0-129 104-233 233-233 129 0 233 104 233 233 0 129-104 233-233 233-129 0-233-104-233-233z m-23 0c0 141 115 256 256 256 141 0 256-115 256-256 0-141-115-256-256-256-141 0-256 115-256 256z m225 115l0-118c0-3 1-6 4-8l93-81c4-4 12-4 16 1 4 5 4 13-1 17l-93 80 4-9 0 118c0 6-5 11-12 11-6 0-11-5-11-11z"/>
<glyph glyph-name="share" unicode="&#83;" d="M40 122c1 1 1 1 2 1 18 13 38 25 60 36 65 34 136 53 209 53l23 0 0-23 0-98-16-16-6 3 0 23 86 88 98 100 0-32-184 188 0 24 6 2 16-16 0-106-18-4c-93-20-160-63-204-124-22-30-37-61-46-93-2-7-4-13-5-19-9-6-15-11-19-14l-7 3c1 6 3 14 5 24z m249 67l1 174c7 1 14 3 22 5l0 110 200-205-97-99-103-106-1 121c-7 0-15 0-22 0l22-23c-66 1-129-17-188-47-21-11-39-22-55-33-6-4-10-7-15-11-2-1-3-3-4-3l-42-36 4 55c1 11 4 28 11 50 11 37 28 73 53 107 51 69 127 120 232 142l-18-22 1-5c-238-63-256-274-256-274 0 0 107 92 254 99l0 1z"/>
<glyph glyph-name="3" unicode="&#84;" d="M317 322l-20 20 0-342 20 20-307 0 21-20 0 342-21-20z m0 20l-307 0 0-342 307 0z m63 156l-29 0 132-133 0 29-166-166 29 0-133 132 0-29z m-15 14l-166-166 132-133 167 167z m-150-182l0-98-10 10 97 0 0-20-107 0 0 108z m-143 16l20 0 0 64-20-21 307 0-21 21 0-343 21 21-85 0 0-21 85 0 0 343-307 0z m0 0l0 64 307 0 0-343-85 0 0 21 85 0-21-21 0 343 21-21-307 0 20 21 0-64z"/>
<glyph glyph-name="facebook" unicode="&#85;" d="M384 512l0-96-64 0c-19 0-32-13-32-32l0-64 96 0 0-96-96 0 0-224-96 0 0 224-64 0 0 96 64 0 0 80c0 61 51 112 112 112z"/>
<glyph glyph-name="cork" unicode="&#86;" d="M423 229c0 5 1 7 2 16 1 4 1 7 1 10 0 11 0 14 1 12l-2 6-6 16 13 11 55 43 15-19-17 18c-3-3-3-10-2-13l22 11-21-13-52 90 21 13-17-18c3-3 7-4 9-3l-8 23 9-22-65-26-13-5-11 8c-9 8-18 13-40 23l0 0-12 6-2 12-10 67-1 6 2 6c-4-11 4-19 13-19l-105 0c7 0 11 3 11 14l0-2 0-2-10-69-3-15-14-5c-5-2-10-4-17-8-4-3-19-14-21-15l0 0-11-7-12 5-63 26 10 22-8-23c2-1 6 1 6 1l-17 17 21-12-52-90-2-3-2-2c4 4 6 9 6 13 0 2 0 4 0 5 0 1 0 1-1 1l-17-17 15 19 55-41 9-7 0-13c0-4 0-7-1-15-1-5-1-8-1-10 0-12 0-15 1-18l0 0 6-16-14-11-55-44-15 19 17-17c3 3 4 9 2 13l-21-11 21 12 52-90-21-12 17 17c-3 3-7 4-9 3l8-23-9 23 65 26 13 5 11-9c9-7 18-12 40-23l11-6 2-12 11-67 0-2 0-2c0 9-6 14-11 14l104 0c-6 0-11-3-11-14l0 2 0 2 11 67 2 12 11 6 0 0c22 11 31 16 40 23l11 9 13-5 65-26 2-1c-7 3-13 1-17-6l1 2 52 90 21-13-21 11c-3-4-2-12 8-17l-2 1-1 1-60 41-11 7z m25 0l60-41c5-3 5-10 2-16l-52-90c-3-5-10-7-16-5l-65 26c-13-10-29-18-44-26l-11-67c0-5-8-10-13-10l-104 0c-8 0-13 5-13 10l-11 67c-15 8-31 16-44 26l-65-26c-8-2-14 0-16 3l-52 90c-3 5-3 10 2 15l55 44c-3 8-3 15-3 26 0 10 3 18 3 25l-55 42c-5 5-8 12-5 15l52 90c5 5 11 8 19 5l62-25c16 10 29 20 45 25l10 70c0 5 8 10 13 10l105 0c5 0 13-5 10-13l10-67c16-7 32-15 45-25l65 25c8 3 13 0 16-2l52-90c3-6 3-11-3-16l-54-44c2-7 2-15 2-25 0-11-2-18-2-26z m-192-46c40 0 73 33 73 73 0 40-33 73-73 73-40 0-73-33-73-73 0-40 33-73 73-73z m0-25c-54 0-98 44-98 98 0 54 44 98 98 98 54 0 98-44 98-98 0-54-44-98-98-98z"/>
<glyph glyph-name="arrow-left" unicode="&#120;" d="M264 42l-244 228 0-17 244 227c5 5 5 12 0 17-4 4-11 5-16 0l-244-227c-5-5-5-13 0-17l244-228c5-4 12-4 16 1 5 4 5 12 0 16z m236 232l-488 0c-7 0-12-5-12-11 0-7 5-12 12-12l488 0c7 0 12 5 12 12 0 6-5 11-12 11z"/>
<glyph glyph-name="drawer" unicode="&#121;" d="M12 439l500 0 0 24-512 0 0-24z m0-195l378 0 0 24-390 0 0-24z m0-195l281 0 0 24-293 0 0-24z"/>
<glyph glyph-name="star" unicode="&#87;" d="M251 105l-155-82 29 174-126 123 175 25 77 158 78-158 175-25-126-123 29-174z"/>
<glyph glyph-name="star-empty" unicode="&#88;" d="M103 69l131 69 17 8 17-8 131-69 5-28-13-9-25 13-25 146-3 19 14 13 106 103 28-4 5-15-20-20-147 22-19 3-8 17-66 133 12 25 16 0 13-25-66-133-8-17-19-3-147-22-20 20 5 15 28 4 106-103 14-13-4-19-25-146-24-13-13 9z m148 36l-155-82 29 174-126 123 175 25 77 158 78-158 175-25-126-123 29-174z"/>
<glyph glyph-name="location" unicode="&#89;" d="M267 134l0 144-20 0 0-154 20 0z m-10 132c57 0 104 46 104 103 0 57-47 103-104 103-57 0-103-46-103-103 0-57 46-103 103-103z m0 20c-46 0-83 37-83 83 0 46 37 83 83 83 46 0 84-37 84-83 0-46-38-83-84-83z m-1-233c131 0 235 28 235 71 0 43-104 72-235 72-131 0-235-29-235-72 0-43 104-71 235-71z m0 20c-118 0-215 26-215 51 0 25 97 52 215 52 118 0 215-27 215-52 0-25-97-51-215-51z"/>
<glyph glyph-name="instagram" unicode="&#115;" d="M450 499l-388 0c-27 0-49-22-49-49l0-388c0-27 22-49 49-49l388 0c27 0 49 22 49 49l0 388c0 27-22 49-49 49z m-194-146c53 0 97-44 97-97 0-53-44-97-97-97-53 0-97 44-97 97 0 53 44 97 97 97z m-182-291c-7 0-12 5-12 12l0 206 51 0c-3-7-3-17-3-24 0-80 66-146 146-146 80 0 146 66 146 146 0 7 0 17-3 24l51 0 0-206c0-7-5-12-12-12z m376 327c0-7-5-12-12-12l-49 0c-7 0-12 5-12 12l0 49c0 7 5 12 12 12l49 0c7 0 12-5 12-12z"/>
<glyph glyph-name="web" unicode="&#90;" d="M497 260c-1 7-1 15-2 21-2 24-7 46-16 66 0 2-1 4-1 5-11 26-27 50-46 70-1 2-2 3-4 4-3 4-7 8-11 11-43 39-100 63-163 63-63 0-121-24-164-64-10-9-19-19-28-30-31-41-50-92-50-148 0-134 108-243 242-243 94 0 176 54 216 133 9 16 15 34 20 53 1 5 2 10 3 14 2 14 4 28 4 43 0 1 0 2 0 2z m-46 97l1 2c2-4 4-7 6-11l-3 0-4-1z m-35 43l0 10c4-4 7-8 11-12l-4-7-16 1-1 3z m-293 27l0 0 5 0 1 2 8 0 0-4-3-3-11 0z m8-11c0 0 5 1 5 1 1 0 0-5 0-5l-11-1-2 2z m335-97l-17 0-11 8-12-1 0-7-3 0-4 3-20 5 0 13-25-2-7-4-10 0-5 0-12-6 0-13-25-18 2-7 5 0-1-7-4-2 0-19 21-24 10 0 0 2 17 0 5 4 9 0 5-5 14-2-2-18 16-28-8-16 0-7 7-6 0-18 8-12 0-14 8 0c-41-51-103-83-173-83-123 0-222 100-222 223 0 31 6 60 17 87l0 7 8 10c3 5 6 10 9 15l1-4-10-11c-3-6-5-11-8-17l0-13 10-4 0-18 8-15 8-1 1 5-9 13-2 13 5 0 3-13 12-18-3-6 7-12 20-5 0 4 8-2-1-5 6-1 9-3 14-15 17-1 1-14-11-8-1-13-1-7 16-21 2-7c0 0 6-2 7-2 0 0 13-10 13-10l0-38 5-1-3-18 7-10-1-18 10-18 13-11 14 0 1 4-10 8 1 4 2 5 0 5-7 0-3 4 6 6 0 4-6 1 1 4 8 1 13 7 5 8 14 18-3 14 4 7 13 0 8 6 3 27 10 12 1 8-9 3-5 9-20 0-15 6-1 11-5 10-14 0-8 12-8 4 0-4-13-1-5 7-14 3-11-13-18 3-1 20-13 2 5 10-1 5-17-11-11 1-4 9 3 8 5 11 14 7 26 0 0-8 10-4-1 13 7 7 13 9 1 7 14 14 15 8-2 1 10 9 4-1 1-2 4 4 1 1-4 0-4 2 0 4 2 2 5 0 2-1 2-4 2 0 0 0 1 0 7 1 1 4 4-1 0-4-4-3 0 0 1-3 12-4 0 0 3 0 0 5-10 5 0 2 8 3 0 8-8 5-1 13-11-6-5 0 1 10-15 4-7-5 0-15-12-4-5-10-5 0 0 12-11 2-5 3-3 8 20 12 10 3 1-7 5 1 1 3 5 1 1 1-3 1 0 3 7 1 4 4 0 1 0 0 1 1 15 2 6-6-17-9 22-5 3 8 9 0 4 6-7 1 0 8-21 10-14-2-9-4 1-11-9 2-1 5 8 8-15 1-4-2-2-5 6-1-1-5-10-1-1-3-14-1c0 0 0 8-1 8 0 0 11 0 11 0l8 8-4 2-6-5-10 0-6 8-12 0-14-10 12 0 2-3-4-3 14 0 2-5-15 0-1 4-9 2-5 3-12 0c37 27 82 42 131 42 56 0 108-21 147-55l-3-5-10-4-4-5 1-5 5-1 3-8 9 4 2-11-3 0-7 1-9-1-8-11-11-2-2-10 5-1-1-7-12 3-10-3-3-5 2-13 6-3 11 0 7 1 2 6 11 14 7-2 7 7 1-5 18-12-2-3-8 1 3-5 5-1 5 3 0 6 3 2-2 2-12 6-3 9 10 0 3-3 8-7 0-9 9-9 3 12 6 4 1-11 6-6 12 0c2-6 4-11 6-17z m-322 71l6 3 5-1-2-7-6-2z m31-16l0-5-13 0-5 1 1 4 6 2 9 0 0-2z m6-7l0-4-3-2-5-1 0 7z m-4 2l0 5 5-4z m2-11l0-4-3-3-7 0 1 5 3 0 1 2z m-17 9l7 0-9-13-4 2 1 6z m30-7l0-5-7 0-2 3 0 4 0 0z m-7 6l2 2 4-2-3-3z m285-58l1 1c0-1 0-2 1-4z m-421 44l0-7c3 6 5 11 8 17z"/>
<glyph glyph-name="chevron-top" unicode="&#48;" d="M21 123l242 255-17 0 242-255c5-5 13-5 18 0 4 4 5 12 0 17l-243 255c-5 5-13 5-17 0l-243-255c-5-5-4-13 0-17 5-5 13-5 18 0z"/>
<glyph glyph-name="money" unicode="&#49;" d="M23 101l483 0 0 238-483 0z m22 217l439 0 0-196-439 0z m0 65l439 0 0-22-439 0z m22 43l395 0 0-22-395 0z m211-198c-4 3-9 5-15 8-7 3-12 6-14 8-2 2-4 5-4 9 0 3 2 7 5 9 3 3 6 4 11 4 7 0 12-4 17-12l14 8c-3 6-7 11-10 14-4 3-9 4-15 5l0 15-13 0 0-15c-4-1-7-2-11-4-3-2-5-4-8-6-2-3-3-6-5-9-1-3-1-6-1-10 0-7 2-13 7-19 3-3 9-7 19-12 5-2 9-4 12-5 3-2 5-4 6-5 3-3 5-7 5-12 0-5-2-10-6-13-3-4-8-6-13-6-6 0-10 2-14 5-3 3-6 9-8 16l-16-3c2-11 6-19 11-24 5-5 13-8 22-10l0-15 13 0 0 16c9 2 15 6 20 13 6 6 8 13 8 22 0 8-3 15-8 21-2 3-5 5-9 7"/>
<glyph glyph-name="emergency" unicode="&#50;" d="M56 478c-29-29-45-68-45-109 0-42 16-81 46-111l192-192c60-60 159-61 220 0 3 3 22 21 22 46 0 17-7 32-22 47l-63 63c-3 3-7 4-10 4l-110-6-75 75 21 93c1 4-1 9-4 12l-79 79c-16 16-33 23-51 22-17 0-38-18-42-23z m80-12l77-77-21-97c0-1 0-1 0-1 0-2 0-3 1-4l84-84c1-1 3-2 4-2l113 7 62-62c11-11 16-22 16-34l0 0c0-18-15-32-16-33-54-53-141-53-194 0l-192 192c-26 26-40 61-40 97 0 37 14 71 39 97 6 7 18 17 30 18 12 1 25-5 37-17z m238-16l0 51-61 0 0-51-52 0 0-61 52 0 0-52 61 0 0 52 51 0 0 61z m31-21l0-20-51 0 0-51-21 0 0 51-51 0 0 20 51 0 0 52 21 0 0-52 51 0z"/>
<glyph glyph-name="phone" unicode="&#51;" d="M55 470c-29-29-45-68-45-110 0-41 16-81 45-110l192-192c61-61 160-61 221 0 3 3 21 20 21 46 0 16-7 32-21 46l-64 64c-2 3-6 4-10 4l-109-6-75 74 20 93c1 5 0 9-3 12l-79 79c-17 17-34 24-52 23-17 0-37-19-41-23z m80-13l77-77-22-97c0 0 0 0 0-1 0-1 1-3 2-4l84-83c1-2 2-2 4-2l113 6 62-62c11-10 16-22 16-33l0 0c0-18-15-32-17-33-53-54-140-54-194 0l-192 192c-26 26-40 60-40 97 0 37 14 71 40 97 6 6 17 17 30 18 12 1 24-5 37-18z"/>
<glyph glyph-name="uber" unicode="&#52;" d="M329 2c130 0 182 72 182 159l0 317c0 19-14 34-36 34l-163 0 0-39c0-15 12-34 34-34l95 0 0-269c0-93-71-99-113-99l-145 0c-43 0-113 6-113 99l0 269 129 0 0 39c0 15-12 34-35 34l-129 0c-21 0-35-15-35-34l0-317c0-87 52-159 181-159l148 0 0 0"/>
</font>
</defs>
</svg>
